<?xml version="1.0" encoding="UTF-8" standalone="no"?>
<svg width="88px" height="88px" viewBox="0 0 88 88" version="1.1" xmlns="http://www.w3.org/2000/svg" xmlns:xlink="http://www.w3.org/1999/xlink" xmlns:sketch="http://www.bohemiancoding.com/sketch/ns">
    <!-- Generator: Sketch 3.2.2 (9983) - http://www.bohemiancoding.com/sketch -->
    <title>Slice 1</title>
    <desc>Created with Sketch.</desc>
    <defs></defs>
    <g id="Page-1" stroke="none" stroke-width="1" fill="none" fill-rule="evenodd" sketch:type="MSPage">
        <g id="x" sketch:type="MSLayerGroup" fill="#e55346">
            <path d="M56.146,43.999 L86.364,13.78 C87.523,12.621 87.523,10.743 86.364,9.585 L78.414,1.635 C77.256,0.477 75.378,0.477 74.219,1.635 L44,31.854 L13.781,1.635 C12.623,0.477 10.744,0.477 9.585,1.635 L1.635,9.585 C0.476,10.743 0.476,12.621 1.635,13.78 L31.854,43.999 L1.636,74.219 C0.476,75.378 0.476,77.256 1.636,78.414 L9.585,86.364 C10.744,87.523 12.623,87.523 13.781,86.364 L44,56.146 L74.218,86.364 C75.377,87.523 77.255,87.523 78.413,86.364 L86.363,78.414 C87.522,77.256 87.522,75.378 86.363,74.219 L56.146,43.999 L56.146,43.999 Z" id="Shape" sketch:type="MSShapeGroup"></path>
        </g>
    </g>
</svg>